<?xml version="1.0" standalone="no"?>
<!DOCTYPE svg PUBLIC "-//W3C//DTD SVG 20010904//EN"
 "http://www.w3.org/TR/2001/REC-SVG-20010904/DTD/svg10.dtd">
<svg version="1.0" xmlns="http://www.w3.org/2000/svg"
 width="180.000000pt" height="180.000000pt" viewBox="0 0 180.000000 180.000000"
 preserveAspectRatio="xMidYMid meet">
<metadata>
Created by potrace 1.11, written by Peter Selinger 2001-2013
</metadata>
<g transform="translate(0.000000,180.000000) scale(0.100000,-0.100000)"
fill="#000000" stroke="none">
<path d="M360 1125 l0 -635 125 0 125 0 0 270 0 270 290 0 290 0 0 -270 0
-270 125 0 125 0 0 635 0 635 -125 0 -125 0 0 -260 0 -260 -287 2 -288 3 -3
258 -2 257 -125 0 -125 0 0 -635z"/>
<path d="M260 155 l0 -135 640 0 640 0 0 135 0 135 -640 0 -640 0 0 -135z"/>
</g>
</svg>
